<svg xmlns="http://www.w3.org/2000/svg" viewBox="0 0 513.88 220.37"><defs><style>.cls-1{font-size:78.76px;font-family:Castellar;letter-spacing:0em;}.cls-1,.cls-4,.cls-6{fill:#fff;}.cls-2{letter-spacing:-0.08em;}.cls-3{letter-spacing:0em;}.cls-4{font-size:85px;stroke:#fff;stroke-miterlimit:10;stroke-width:3px;font-family:Gabriola;}.cls-5{letter-spacing:-0.01em;}.cls-7{fill:#007fff;}</style></defs><title>Asset 5</title><g id="Layer_2" data-name="Layer 2"><g id="Layer_3" data-name="Layer 3"><text class="cls-1" transform="translate(109.54 107.54) scale(0.96 1)">S<tspan class="cls-2" x="37.41" y="0">P</tspan><tspan class="cls-3" x="80.1" y="0">ACE</tspan></text><text class="cls-4" transform="translate(74.54 161.51)"><tspan class="cls-5">C</tspan><tspan x="39.91" y="0">ONSOLE</tspan></text><path class="cls-6" d="M451.4,90.1c27.06,35,48.26,65.1,62.26,90.4H498.12A18.69,18.69,0,0,1,483,172.59c-11.73-16.33-35.1-45.09-49.83-64.16l-64.33,64.62a25.3,25.3,0,0,1-17.93,7.45H332.73l86.91-87.3c-22.13-24.3-40.76-53.7-86-68.95-48-16.17-146.35,40-180.27,18.59C176,50.53,288.3,0,316.67,0c30.72,0,56.82,15.15,80,34.76,18.78,15.87,26.17,23.82,41.19,40.09l43.52-43.71a14.75,14.75,0,0,1,10.24-4.34l22.22-.3Z"/><g id="svg_1" data-name="svg 1"><path id="svg_2" data-name="svg 2" class="cls-7" d="M108.11,45a42.42,42.42,0,0,0-11.24,2.88c-3.39,1.5-7.8,4-7.85,4.55a64.43,64.43,0,0,0,3.2,9.39,77.67,77.67,0,0,0,6.9,12.41l1.68,2.41,2-3.44a109.31,109.31,0,0,0,6.94-14.85,91,91,0,0,0,3.06-11.45l.29-1.63L111.64,45A26.2,26.2,0,0,0,108.11,45Z"/><path id="svg_3" data-name="svg 3" class="cls-7" d="M82.83,56.65A125.83,125.83,0,0,0,64.24,73C62.26,75.1,53.72,87.41,53.1,89c-.11.28-5.65,8.8-12.28,18.94s-12.14,18.63-12.24,18.88,3.72,9,4,9c.07,0,4.29-2.88,25.46-17.41,20-13.7,19.08-13,25.24-20a144,144,0,0,0,13.78-18.1l1.13-1.8L97,77A70.22,70.22,0,0,1,87,56.29c-.31-1-.67-1.79-.82-1.77A21.31,21.31,0,0,0,82.83,56.65Z"/><path id="svg_4" data-name="svg 4" class="cls-7" d="M23.23,98.11c-6.27,6.58-13,13.7-15.07,15.81a42.61,42.61,0,0,0-3.55,4,60.26,60.26,0,0,0,6-3.7l5.9-3.9,4.51-.65,4.5-.62L26,110c1,2.27,4.21,8.76,4.27,8.69.17-.24,8.74-13.86,9.94-15.84.76-1.25,2.86-4.56,4.66-7.4a45.93,45.93,0,0,0,3.12-5.34,72.09,72.09,0,0,0-8-2.53c-.78-.19-2.15-.58-3-.86s-1.77-.54-1.92-.55S29.48,91.5,23.23,98.11Z"/><path id="svg_5" data-name="svg 5" class="cls-7" d="M53.3,126.42c-6.33,4.11-11.79,7.64-12.12,7.83-.6.38-.54.54,1.72,5.17,1.3,2.63,2.34,4.9,2.32,5s-.78,2.72-1.73,5.75c-1.73,5.59-2.15,6.69-3.56,8.79-2,3-7,11.17-7,11.32s.85-.54,16.59-17.08L63.28,138.8l.81-9.87c.43-5.43.78-9.92.75-9.92S59.64,122.31,53.3,126.42Z"/><path id="svg_6" data-name="svg 6" class="cls-7" d="M19.5,128.35c-2,1.41-7.44,9.76-11.37,17.57C6,150.25-.11,163.47,0,163.66s8.1-2.79,12.07-4.46a89.73,89.73,0,0,0,12.82-7.13,19.15,19.15,0,0,0,4.7-5.23c.91-1.64,1.42-7,.94-10a11.31,11.31,0,0,0-4-7.17C24.84,128.58,20.44,127.7,19.5,128.35Zm3.82,8.79c1.88,1.51,1.94,5.56.12,7.29-1.36,1.26-9.43,5.3-9.69,4.84s4.58-9.91,6.28-12C21.08,136,21.82,136,23.32,137.14Z"/></g></g></g></svg>