<svg xmlns="http://www.w3.org/2000/svg" version="1.0" width="398.000000" height="367.000000" preserveAspectRatio="xMidYMid meet" style=""><rect id="backgroundrect" width="100%" height="100%" x="0" y="0" fill="none" stroke="none"/>
<metadata>
Created by potrace 1.16, written by Peter Selinger 2001-2019
</metadata>

<g class="currentLayer" style=""><title>Layer 1</title><g transform="translate(0,367) scale(0.10000000149011612,-0.10000000149011612) " fill="#007fff" stroke="none" id="svg_1" class="" fill-opacity="1">
<path d="M3775 3639 c-111 -13 -312 -64 -427 -109 -126 -50 -288 -131 -288 -145 1 -17 97 -166 161 -247 79 -100 221 -243 317 -319 l75 -61 64 99 c74 113 168 300 213 423 29 80 61 218 75 320 l5 45 -57 1 c-32 1 -94 -3 -138 -7z" id="svg_2" fill="#007fff"/>
<path d="M2835 3252 c-235 -143 -481 -327 -661 -494 -69 -64 -354 -422 -372 -468 -3 -8 -186 -255 -405 -549 -219 -294 -401 -540 -404 -547 -4 -11 180 -234 192 -234 3 0 156 90 925 543 727 427 693 405 906 613 196 191 343 358 467 530 l37 52 -53 39 c-175 133 -361 345 -471 536 -16 26 -33 47 -39 46 -7 0 -61 -30 -122 -67z" id="svg_3" fill="#007fff"/>
<path d="M673 1962 c-219 -196 -455 -408 -526 -471 -70 -63 -125 -116 -123 -118 2 -3 101 50 220 117 l215 122 173 30 173 29 20 -24 c49 -59 198 -227 200 -225 6 7 287 401 326 458 25 36 94 132 153 214 59 82 104 151 101 154 -5 5 -187 31 -323 47 -31 3 -86 10 -122 15 -36 5 -71 10 -77 10 -7 0 -192 -161 -410 -358z" id="svg_4" fill="#007fff"/>
<path d="M1955 1273 c-231 -129 -430 -240 -442 -246 -22 -12 -19 -16 87 -136 61 -68 110 -127 110 -131 0 -3 -20 -76 -45 -161 -46 -157 -58 -188 -105 -249 -67 -87 -230 -323 -227 -327 6 -5 31 17 580 510 l479 430 -7 271 c-4 149 -8 272 -9 272 0 1 -190 -104 -421 -233z" id="svg_5" fill="#007fff"/>
<path d="M645 1129 c-74 -44 -252 -286 -375 -509 -68 -124 -253 -500 -248 -505 5 -5 305 98 453 154 137 53 390 176 472 229 69 46 134 107 163 155 29 47 28 195 -2 274 -28 77 -105 153 -185 184 -69 26 -244 38 -278 18z m183 -229 c79 -36 97 -146 33 -198 -48 -38 -347 -170 -359 -158 -14 15 140 282 198 344 36 38 65 40 128 12z" id="svg_6" fill="#007fff"/>
</g></g></svg>