<svg xmlns="http://www.w3.org/2000/svg" viewBox="0 0 374.84 180.5"><defs><style>.cls-1{font-size:78.76px;font-family:Castellar;letter-spacing:0em;}.cls-1,.cls-3,.cls-4{fill:#fff;}.cls-2{letter-spacing:-0.08em;}.cls-3{font-size:49.5px;stroke:#fff;stroke-miterlimit:10;stroke-width:3px;font-family:Candara;}</style></defs><title>spacexconsole_logo</title><g id="Layer_2" data-name="Layer 2"><g id="Layer_3" data-name="Layer 3"><text class="cls-1" transform="translate(1.5 115.54) scale(0.96 1)">S<tspan class="cls-2" x="37.41" y="0">P</tspan><tspan x="80.1" y="0">ACE</tspan></text><text class="cls-3" transform="translate(1.5 154.51)">CONSOLE</text><path class="cls-4" d="M312.37,90.1c27.05,35,48.26,65.1,62.25,90.4H359.08A18.67,18.67,0,0,1,344,172.59c-11.73-16.33-35.11-45.09-49.83-64.16l-64.33,64.62a25.3,25.3,0,0,1-17.93,7.45H193.7l86.9-87.3c-22.13-24.3-40.76-53.7-86-68.95-48-16.17-146.35,40-180.28,18.59C37,50.53,149.27,0,177.64,0c30.72,0,56.81,15.15,80,34.76,18.79,15.87,26.18,23.82,41.2,40.09l43.51-43.71a14.79,14.79,0,0,1,10.25-4.34l22.21-.3Z"/></g></g></svg>